# Blender 4.5.0
# www.blender.org
o Ripper
v 0.125000 0.833333 0.000000
v 0.125000 1.418333 0.000000
v 0.125000 1.250000 0.500000
v 0.375000 0.541670 -0.875000
v 0.375000 0.250000 -0.875000
v 0.250000 0.500000 -1.000000
v 0.375000 0.666667 -0.500000
v 0.375000 0.250000 -0.500000
v 0.250000 0.250000 -0.500000
v 0.250000 1.418333 0.000000
v 0.125000 1.000000 0.500000
v 0.374985 1.699085 -0.844136
v 0.375000 1.586667 -0.500000
v 0.375000 1.500000 0.500000
v 0.375000 0.666667 -0.500000
v 0.250000 1.586667 -0.500000
v 0.250000 0.666667 -0.500000
v 0.375000 0.250000 0.000000
v 0.375000 0.833333 0.000000
v 0.250000 1.699085 -0.844136
v 0.250000 0.500000 1.000000
v 0.375000 0.250000 0.500000
v 0.250000 0.250000 0.000000
v 0.250000 0.000000 -1.000000
v 0.250000 0.833333 0.000000
v 0.250000 0.666667 -0.500000
v 0.250000 1.500000 0.500000
v 0.250000 2.000000 -1.000000
v 0.250000 1.750000 -1.000000
v 0.250000 1.750000 -2.000000
v 0.250000 1.250000 0.500000
v 0.250000 0.250000 -1.000000
v 0.249985 1.699085 -0.844136
v 0.374985 1.699085 -0.844136
v 0.250000 1.699085 -0.844136
v 0.750000 0.250000 -0.500000
v 0.249985 1.699085 -0.844136
v 0.250000 0.000000 1.000000
v 0.250000 1.000000 0.500000
v 0.374983 1.675619 -1.252980
v 0.250000 0.250000 0.500000
v 0.250000 0.250000 1.000000
v 0.750000 0.000000 0.500000
v 0.750000 0.250000 0.500000
v 0.750000 0.000000 -0.500000
v 0.250000 0.500000 -2.000000
v 0.125000 1.586667 -0.500000
v 0.249986 1.621326 -0.818299
v 0.250000 0.745454 -0.527273
v -0.125000 0.833333 0.000000
v -0.125000 1.418333 0.000000
v -0.125000 1.250000 0.500000
v -0.375000 0.541670 -0.875000
v -0.375000 0.250000 -0.875000
v -0.250000 0.500000 -1.000000
v -0.375000 0.666667 -0.500000
v -0.375000 0.250000 -0.500000
v -0.250000 0.250000 -0.500000
v -0.250000 1.418333 0.000000
v -0.125000 1.000000 0.500000
v -0.374984 1.699085 -0.844136
v -0.375000 1.586667 -0.500000
v -0.375000 1.500000 0.500000
v -0.375000 0.666667 -0.500000
v -0.250000 1.586667 -0.500000
v -0.250000 0.666667 -0.500000
v -0.375000 0.250000 0.000000
v -0.375000 0.833333 0.000000
v -0.250000 1.699085 -0.844136
v -0.250000 0.500000 1.000000
v -0.375000 0.250000 0.500000
v -0.250000 0.250000 0.000000
v -0.250000 0.000000 -1.000000
v -0.250000 0.833333 0.000000
v -0.250000 0.666667 -0.500000
v -0.250000 1.500000 0.500000
v -0.250000 2.000000 -1.000000
v -0.250000 1.750000 -1.000000
v -0.250000 1.750000 -2.000000
v -0.250000 1.250000 0.500000
v -0.250000 0.250000 -1.000000
v -0.249984 1.699085 -0.844136
v -0.374984 1.699085 -0.844136
v -0.250000 1.699085 -0.844136
v -0.750000 0.250000 -0.500000
v -0.249984 1.699085 -0.844136
v -0.250000 0.000000 1.000000
v -0.250000 1.000000 0.500000
v -0.374983 1.675619 -1.252980
v -0.250000 0.250000 0.500000
v -0.250000 0.250000 1.000000
v -0.750000 0.000000 0.500000
v -0.750000 0.250000 0.500000
v -0.750000 0.000000 -0.500000
v -0.250000 0.500000 -2.000000
v -0.125000 1.586667 -0.500000
v -0.249986 1.621326 -0.818299
v -0.250000 0.745454 -0.527273
vn 1.0000 -0.0000 -0.0000
vn -0.0000 0.9477 0.3191
vn -0.0000 -0.0000 -1.0000
vn 0.8851 0.4425 0.1445
vn -0.0000 -0.0000 1.0000
vn -0.8968 -0.4292 0.1073
vn 0.3163 -0.9487 -0.0000
vn -0.9934 0.0363 0.1090
vn -0.0000 -0.9507 -0.3100
vn -0.0000 0.9864 -0.1644
vn -0.0000 -0.9487 0.3162
vn -1.0000 -0.0000 -0.0000
vn 0.9470 0.3199 0.0277
vn 0.7071 -0.0000 0.7071
vn -0.9272 -0.3740 0.0215
vn -0.0000 -0.9506 -0.3105
vn -0.9363 -0.3511 -0.0000
vn -0.0000 0.3162 0.9487
vn 1.0000 -0.0002 -0.0001
vn -0.7941 0.6078 -0.0000
vn -0.0000 -0.5530 -0.8332
vn 0.7071 -0.0000 -0.7071
vn -0.0000 -0.9941 -0.1082
vn -0.0000 -1.0000 -0.0000
vn -0.0000 -0.9477 -0.3191
vn 0.8851 -0.4425 -0.1445
vn -0.8968 0.4292 -0.1073
vn 0.3163 0.9487 -0.0000
vn -0.9934 -0.0363 -0.1090
vn -0.0000 0.9505 0.3107
vn -0.0000 -0.9864 0.1644
vn -0.0000 0.9487 -0.3162
vn 0.9470 -0.3199 -0.0277
vn -0.9272 0.3740 -0.0215
vn -0.0000 0.9506 0.3105
vn -0.9363 0.3511 -0.0000
vn -0.0000 -0.3162 -0.9487
vn 1.0000 0.0002 0.0001
vn -0.7941 -0.6078 -0.0000
vn -0.0000 0.5530 0.8332
vn -0.0000 0.9941 0.1082
vn -0.0000 1.0000 -0.0000
vn -0.0000 0.4472 0.8944
vn -0.0000 0.9487 0.3162
vn -0.0000 0.9701 -0.2425
vn -0.0000 -0.9701 -0.2425
vn -0.9863 -0.0000 0.1650
vn 1.0000 -0.0001 -0.0000
vn -0.9863 -0.0000 -0.1650
vn 1.0000 0.0001 -0.0000
vt 0.948246 0.820866
vt 0.909057 0.811069
vt 0.948246 0.654311
vt 0.532447 0.952644
vt 0.512249 0.867397
vt 0.532447 0.867397
vt 0.139603 0.085000
vt 0.108434 0.047880
vt 0.077141 0.000087
vt 0.565954 0.086932
vt 0.713285 0.305064
vt 0.565954 0.328182
vt 0.860408 0.935202
vt 0.840210 0.840946
vt 0.860408 0.840946
vt 0.845372 0.372288
vt 0.869146 0.425737
vt 0.845372 0.479039
vt 0.244802 0.395542
vt 0.262047 0.330497
vt 0.255793 0.570953
vt 0.242324 0.569283
vt 0.229185 0.328392
vt 0.242324 0.325418
vt 0.039059 0.088864
vt 0.041993 0.062506
vt 0.039056 0.062507
vt 0.225931 0.775041
vt 0.225930 0.941597
vt 0.180285 0.827410
vt 0.346161 0.598556
vt 0.327364 0.759042
vt 0.327364 0.576019
vt 0.347663 0.799888
vt 0.388058 0.799888
vt 0.347663 0.961471
vt 0.649579 0.689734
vt 0.838708 0.699855
vt 0.772096 0.881142
vt 0.322708 0.337974
vt 0.322700 0.337974
vt 0.322700 0.329875
vt 0.803427 0.329393
vt 0.823624 0.415766
vt 0.823624 0.657015
vt 0.242380 0.983494
vt 0.222182 0.943099
vt 0.242380 0.943099
vt 0.736279 0.893214
vt 0.756477 0.978375
vt 0.736279 0.978375
vt 0.633436 0.744510
vt 0.633436 0.829757
vt 0.543851 0.799596
vt 0.062493 0.057609
vt 0.084500 0.057608
vt 0.062554 0.000082
vt 0.031254 0.046905
vt 0.054694 0.054715
vt 0.031250 0.054725
vt 0.887258 0.999249
vt 0.861910 0.938126
vt 0.920273 0.938126
vt 0.730371 0.960540
vt 0.649579 0.987470
vt 0.730371 0.893214
vt 0.626144 0.975004
vt 0.646340 0.916506
vt 0.646342 0.975004
vt 0.743790 0.657637
vt 0.743790 0.329393
vt 0.772106 0.488474
vt 0.840210 0.486254
vt 0.860405 0.662098
vt 0.840210 0.662098
vt 0.596952 0.678324
vt 0.614443 0.646887
vt 0.596952 0.730060
vt 0.964400 0.571501
vt 0.944203 0.486254
vt 0.964400 0.486254
vt 0.205733 0.570059
vt 0.205733 0.325418
vt 0.227683 0.409975
vt 0.451655 0.799888
vt 0.431457 0.945985
vt 0.431457 0.799888
vt 0.831844 0.936704
vt 0.860408 0.977100
vt 0.831844 0.983833
vt 0.553553 0.730060
vt 0.573748 0.678324
vt 0.573751 0.730060
vt 0.944202 0.573002
vt 0.964400 0.640328
vt 0.944202 0.640328
vt 0.054693 0.046894
vt 0.031250 0.054725
vt 0.031253 0.046905
vt 0.046894 0.062476
vt 0.015592 0.054575
vt 0.046881 0.054613
vt 0.960768 0.000751
vt 0.980966 0.081542
vt 0.960768 0.081542
vt 0.453157 0.799888
vt 0.473355 0.945985
vt 0.453157 0.945985
vt 0.078115 0.104488
vt 0.095671 0.058583
vt 0.095633 0.121274
vt 0.283816 0.955749
vt 0.244627 0.945952
vt 0.283816 0.789194
vt 0.965902 0.907615
vt 0.945704 0.822368
vt 0.965902 0.822368
vt 0.139604 0.084916
vt 0.108391 0.047857
vt 0.077202 0.000037
vt 0.713285 0.305064
vt 0.860408 0.935202
vt 0.244802 0.395542
vt 0.262047 0.330497
vt 0.648078 0.730119
vt 0.634938 0.489227
vt 0.648078 0.486253
vt 0.039071 0.088882
vt 0.042004 0.062491
vt 0.039067 0.062505
vt 0.225930 0.775041
vt 0.225930 0.941597
vt 0.180285 0.827410
vt 0.182632 0.604941
vt 0.163835 0.765427
vt 0.163835 0.582404
vt 0.347662 0.799888
vt 0.388058 0.799888
vt 0.347662 0.961471
vt 0.078148 0.057610
vt 0.046876 0.072911
vt 0.078115 0.134748
vt 0.838708 0.699855
vt 0.772096 0.881142
vt 0.322708 0.347573
vt 0.322700 0.347573
vt 0.322700 0.339475
vt 0.823624 0.415766
vt 0.823624 0.657015
vt 0.977928 0.476142
vt 0.957731 0.435747
vt 0.977928 0.435747
vt 0.757979 0.893214
vt 0.778177 0.978375
vt 0.757979 0.978375
vt 0.633436 0.829757
vt 0.054694 0.054715
vt 0.887258 0.999249
vt 0.861910 0.938126
vt 0.920273 0.938126
vt 0.649579 0.987470
vt 0.646340 0.916506
vt 0.646342 0.975004
vt 0.840210 0.663599
vt 0.860405 0.839444
vt 0.840210 0.839444
vt 0.596952 0.678324
vt 0.614443 0.646887
vt 0.596952 0.730060
vt 0.969946 0.739558
vt 0.949748 0.654311
vt 0.969946 0.654311
vt 0.205733 0.570059
vt 0.205733 0.325418
vt 0.227683 0.409975
vt 0.451655 0.799888
vt 0.431457 0.945985
vt 0.431457 0.799888
vt 0.553553 0.730060
vt 0.573748 0.678324
vt 0.573751 0.730060
vt 0.949748 0.741060
vt 0.969946 0.808386
vt 0.949748 0.808386
vt 0.054693 0.046894
vt 0.031250 0.054725
vt 0.031253 0.046905
vt 0.046869 0.062500
vt 0.015550 0.054537
vt 0.046901 0.054561
vt 0.960768 0.083044
vt 0.980966 0.163835
vt 0.960769 0.163835
vt 0.095633 0.121274
vt 0.078147 0.073197
vt 0.095671 0.058583
vt 0.015602 0.046875
vt -0.000029 0.062570
vt 0.000000 0.046875
vt 0.000000 0.097671
vt 0.015645 0.062496
vt 0.015645 0.097671
vt 0.035002 0.107474
vt 0.015626 0.062492
vt 0.019666 0.107434
vt 0.926163 0.204231
vt 0.845372 0.370786
vt 0.845372 0.204231
vt 0.861909 0.652809
vt 0.942701 0.486254
vt 0.942701 0.652809
vt 0.031233 0.046934
vt 0.015615 0.054749
vt 0.015612 0.046944
vt 0.046868 0.046886
vt 0.000006 0.031221
vt 0.015625 0.000000
vt 0.220680 0.983494
vt 0.180285 0.943099
vt 0.220680 0.943099
vt 0.000751 0.961471
vt 0.081542 0.799888
vt 0.081542 0.961471
vt 0.204231 0.580902
vt 0.143637 0.325418
vt 0.184033 0.325418
vt 0.000751 0.961471
vt 0.081542 0.799888
vt 0.081542 0.961471
vt 0.184033 0.325418
vt 0.123440 0.580902
vt 0.143637 0.325418
vt 0.046878 0.072900
vt 0.078073 0.057633
vt 0.078116 0.134747
vt 0.512249 0.952644
vt 0.139692 0.005885
vt 0.108417 0.084945
vt 0.765185 0.120137
vt 0.840210 0.935202
vt 0.320588 0.346018
vt 0.308516 0.391550
vt 0.320588 0.584212
vt 0.244626 0.395553
vt 0.041998 0.088880
vt 0.649579 0.891712
vt 0.823624 0.329393
vt 0.222182 0.983494
vt 0.756477 0.893214
vt 0.595152 0.731621
vt 0.633436 0.915004
vt 0.054693 0.046894
vt 0.734777 0.973270
vt 0.649579 0.893214
vt 0.626144 0.916506
vt 0.860408 0.486254
vt 0.596952 0.486254
vt 0.944203 0.571501
vt 0.451655 0.945985
vt 0.860408 0.936704
vt 0.573751 0.486253
vt 0.964400 0.573002
vt 0.015609 0.062479
vt 0.980966 0.000751
vt 0.473355 0.799888
vt 0.078123 0.073221
vt 0.945704 0.907615
vt 0.139701 0.005926
vt 0.108400 0.084936
vt 0.041991 0.088876
vt 0.046928 0.057605
vt 0.957731 0.476142
vt 0.778177 0.893214
vt 0.595152 0.731621
vt 0.860408 0.663599
vt 0.596952 0.486254
vt 0.949748 0.739558
vt 0.451655 0.945985
vt 0.573751 0.486253
vt 0.969946 0.741060
vt 0.054694 0.054715
vt 0.015603 0.062477
vt 0.980966 0.083044
vt 0.078115 0.104488
vt 0.015602 0.062570
vt 0.000000 0.062496
vt 0.039094 0.062508
vt 0.926163 0.370786
vt 0.861909 0.486254
vt 0.031251 0.054742
vt 0.046873 0.000000
vt 0.062502 0.015624
vt 0.062498 0.031244
vt 0.015625 0.046853
vt -0.000006 0.015623
vt 0.180285 0.983494
vt 0.000751 0.799888
vt 0.123440 0.580902
vt 0.000751 0.799888
vt 0.204231 0.580902
vt 0.046932 0.057686
s 0
f 28/1/1 29/2/1 30/3/1
f 10/4/2 3/5/2 31/6/2
f 71/7/1 68/8/1 62/9/1
f 46/10/1 48/11/1 49/12/1
f 25/13/3 18/14/3 23/15/3
f 13/16/4 34/17/4 28/18/4
f 7/19/1 8/20/1 12/21/1
f 46/22/1 49/23/1 17/24/1
f 14/25/5 41/26/5 22/27/5
f 28/28/6 30/29/6 40/30/6
f 6/31/7 46/32/7 4/33/7
f 6/34/1 32/35/1 46/36/1
f 46/37/8 4/38/8 40/39/8
f 35/40/9 37/41/9 29/42/9
f 1/43/10 49/44/10 46/45/10
f 31/46/5 11/47/5 39/48/5
f 39/49/11 1/50/11 25/51/11
f 3/52/12 2/53/12 1/54/12
f 13/55/13 28/56/13 14/57/13
f 44/58/14 38/59/14 43/60/14
f 40/61/15 34/62/15 28/63/15
f 17/64/1 25/65/1 9/66/1
f 16/67/16 34/68/16 13/69/16
f 1/70/17 46/71/17 6/72/17
f 17/73/18 34/74/18 20/75/18
f 48/76/19 29/77/19 16/78/19
f 16/79/2 2/80/2 10/81/2
f 30/82/20 47/83/20 29/84/20
f 25/85/21 13/86/21 19/87/21
f 5/88/22 6/89/22 4/90/22
f 47/91/23 48/92/23 16/93/23
f 9/94/5 7/95/5 26/96/5
f 24/97/22 36/98/22 45/99/22
f 36/100/1 43/101/1 45/102/1
f 23/103/24 22/104/24 41/105/24
f 25/106/21 47/107/21 16/108/21
f 93/109/24 81/110/24 91/111/24
f 77/112/1 78/113/1 79/114/1
f 59/115/25 52/116/25 80/117/25
f 22/118/1 19/119/1 13/120/1
f 95/10/1 97/121/1 98/12/1
f 74/122/5 67/14/5 72/15/5
f 62/16/26 83/17/26 77/18/26
f 56/123/1 57/124/1 61/21/1
f 95/125/1 98/126/1 66/127/1
f 63/128/3 90/129/3 71/130/3
f 77/131/27 79/132/27 89/133/27
f 55/134/28 95/135/28 53/136/28
f 55/137/1 81/138/1 95/139/1
f 90/140/12 70/141/12 76/142/12
f 95/37/29 53/143/29 89/144/29
f 84/145/30 86/146/30 78/147/30
f 50/43/31 98/148/31 95/149/31
f 80/150/3 60/151/3 88/152/3
f 88/153/32 50/154/32 74/155/32
f 52/52/12 51/156/12 50/54/12
f 62/55/33 77/56/33 63/57/33
f 93/99/22 87/157/22 92/98/22
f 89/158/34 83/159/34 77/160/34
f 66/64/1 74/161/1 58/66/1
f 65/67/35 83/162/35 62/163/35
f 50/70/36 95/71/36 55/72/36
f 66/164/37 83/165/37 69/166/37
f 97/167/38 78/168/38 65/169/38
f 65/170/25 51/171/25 59/172/25
f 79/173/39 96/174/39 78/175/39
f 74/176/40 62/177/40 68/178/40
f 54/88/14 55/89/14 53/90/14
f 96/179/41 97/180/41 65/181/41
f 58/182/3 56/183/3 75/184/3
f 73/185/14 85/186/14 94/187/14
f 85/188/1 92/189/1 94/190/1
f 72/191/42 71/192/42 90/193/42
f 74/106/40 96/107/40 65/108/40
f 42/194/42 36/195/42 32/196/42
f 87/197/3 21/198/3 38/199/3
f 76/200/43 21/201/43 27/202/43
f 77/203/44 14/204/44 28/205/44
f 79/206/45 28/207/45 30/208/45
f 81/209/46 46/210/46 32/211/46
f 73/212/3 32/213/3 24/214/3
f 92/215/24 73/216/24 45/217/24
f 3/218/5 60/219/5 11/220/5
f 95/221/42 6/222/42 46/223/42
f 6/224/32 60/225/32 11/226/32
f 30/227/24 78/228/24 79/229/24
f 3/230/44 78/231/44 52/232/44
f 21/233/1 41/234/1 27/235/1
f 10/4/2 2/236/2 3/5/2
f 62/9/1 63/237/1 71/7/1
f 71/7/1 67/238/1 68/8/1
f 46/10/1 30/239/1 48/11/1
f 25/13/3 19/240/3 18/14/3
f 8/20/1 5/241/1 4/242/1
f 4/242/1 40/243/1 12/21/1
f 8/20/1 4/242/1 12/21/1
f 12/21/42 15/244/42 7/19/42
f 14/25/5 27/245/5 41/26/5
f 40/39/47 30/246/47 46/37/47
f 1/43/10 25/247/10 49/44/10
f 31/46/5 3/248/5 11/47/5
f 39/49/11 11/249/11 1/50/11
f 1/54/12 11/250/12 3/52/12
f 2/53/12 47/251/12 1/54/12
f 44/58/14 42/252/14 38/59/14
f 17/64/1 49/253/1 25/65/1
f 25/65/1 23/254/1 9/66/1
f 16/67/16 35/255/16 34/68/16
f 17/73/18 15/256/18 34/74/18
f 48/76/48 30/257/48 29/77/48
f 16/79/2 47/258/2 2/80/2
f 25/85/21 16/259/21 13/86/21
f 5/88/22 32/260/22 6/89/22
f 47/91/23 30/261/23 48/92/23
f 9/94/5 8/262/5 7/95/5
f 24/97/22 32/157/22 36/98/22
f 36/100/1 44/263/1 43/101/1
f 23/103/24 18/264/24 22/104/24
f 25/106/21 1/265/21 47/107/21
f 93/109/24 85/266/24 81/110/24
f 59/115/25 51/267/25 52/116/25
f 13/120/1 14/268/1 22/118/1
f 22/118/1 18/269/1 19/119/1
f 95/10/1 79/239/1 97/121/1
f 74/122/5 68/240/5 67/14/5
f 57/124/1 54/241/1 53/242/1
f 53/242/1 89/243/1 61/21/1
f 57/124/1 53/242/1 61/21/1
f 61/21/42 64/244/42 56/123/42
f 63/128/3 76/270/3 90/129/3
f 90/140/12 91/271/12 70/141/12
f 89/144/49 79/246/49 95/37/49
f 50/43/31 74/247/31 98/148/31
f 80/150/3 52/272/3 60/151/3
f 88/153/32 60/273/32 50/154/32
f 50/54/12 60/274/12 52/52/12
f 51/156/12 96/251/12 50/54/12
f 93/99/22 91/97/22 87/157/22
f 66/64/1 98/253/1 74/161/1
f 74/161/1 72/254/1 58/66/1
f 65/67/35 84/255/35 83/162/35
f 66/164/37 64/275/37 83/165/37
f 97/167/50 79/276/50 78/168/50
f 65/170/25 96/277/25 51/171/25
f 74/176/40 65/278/40 62/177/40
f 54/88/14 81/260/14 55/89/14
f 96/179/41 79/279/41 97/180/41
f 58/182/3 57/280/3 56/183/3
f 73/185/14 81/281/14 85/186/14
f 85/188/1 93/282/1 92/189/1
f 72/191/42 67/283/42 71/192/42
f 74/106/40 50/265/40 96/107/40
f 42/194/42 44/284/42 36/195/42
f 87/197/3 70/285/3 21/198/3
f 76/200/43 70/286/43 21/201/43
f 77/203/44 63/287/44 14/204/44
f 79/206/45 77/288/45 28/207/45
f 81/209/46 95/289/46 46/210/46
f 73/212/3 81/290/3 32/213/3
f 45/217/24 43/291/24 38/292/24
f 38/292/24 87/293/24 92/215/24
f 92/215/24 94/294/24 73/216/24
f 73/216/24 24/295/24 45/217/24
f 45/217/24 38/292/24 92/215/24
f 3/218/5 52/296/5 60/219/5
f 95/221/42 55/297/42 6/222/42
f 6/224/32 55/298/32 60/225/32
f 30/227/24 29/299/24 78/228/24
f 3/230/44 29/300/44 78/231/44
f 21/233/1 42/301/1 41/234/1
l 35 30
l 33 48
l 33 20
l 31 27
l 26 6
l 6 17
l 29 33
l 20 12
l 84 79
l 82 97
l 82 69
l 80 76
l 75 55
l 55 66
l 78 82
l 69 61
